<svg xmlns="http://www.w3.org/2000/svg" width="75" height="192" viewBox="0 0 75 192">
  <path fill="#E6BB22" fill-rule="evenodd" d="M142.492851,148 L74.5071494,148 C72.5712029,148 71,149.569686 71,151.503763 L71,336.496237 C71,338.430314 72.5712029,340 74.5071494,340 L142.492851,340 C144.428797,340 146,338.430314 146,336.496237 L146,151.503763 C146,149.569686 144.428797,148 142.492851,148 L142.492851,148 Z M138.985701,332.992473 L78.0267686,332.992473 L78.0267686,302.165585 L94.5742788,302.165585 C96.5102253,302.165585 98.0814282,300.595899 98.0814282,298.661822 C98.0814282,296.727745 96.5102253,295.158059 94.5742788,295.158059 L78.0267686,295.158059 L78.0267686,281.143005 L94.5742788,281.143005 C96.5102253,281.143005 98.0814282,279.573319 98.0814282,277.639242 C98.0814282,275.705165 96.5102253,274.135479 94.5742788,274.135479 L78.0267686,274.135479 L78.0267686,260.120426 L94.5742788,260.120426 C96.5102253,260.120426 98.0814282,258.55074 98.0814282,256.616662 C98.0814282,254.682585 96.5102253,253.112899 94.5742788,253.112899 L78.0267686,253.112899 L78.0267686,239.097846 L94.5742788,239.097846 C96.5102253,239.097846 98.0814282,237.52816 98.0814282,235.594083 C98.0814282,233.660005 96.5102253,232.090319 94.5742788,232.090319 L78.0267686,232.090319 L78.0267686,218.075266 L94.5742788,218.075266 C96.5102253,218.075266 98.0814282,216.50558 98.0814282,214.571503 C98.0814282,212.637425 96.5102253,211.067739 94.5742788,211.067739 L78.0267686,211.067739 L78.0267686,197.052686 L94.5742788,197.052686 C96.5102253,197.052686 98.0814282,195.483 98.0814282,193.548923 C98.0814282,191.614846 96.5102253,190.04516 94.5742788,190.04516 L78.0267686,190.04516 L78.0267686,176.030106 L94.5742788,176.030106 C96.5102253,176.030106 98.0814282,174.46042 98.0814282,172.526343 C98.0814282,170.592266 96.5102253,169.02258 94.5742788,169.02258 L78.0267686,169.02258 L78.0267686,155.007527 L138.998171,155.007527 L138.998171,332.992473 L138.985701,332.992473 Z" transform="translate(-71 -148)"/>
</svg>
